# xmcd
#
# Track frame offsets:
#	150
#	13601
#	27468
#	45788
#	60987
#	72448
#	86793
#	102484
#	119017
#
# Disc length: 1798 seconds
#
# Revision: 0
# Processed by: cddbd v1.5.1PL0 Copyright (c) Steve Scherf et al.
# Submitted via: audiograbber 1.83.01
#
DISCID=74070409
DTITLE=Dottie West - High Time
DYEAR=1981
DGENRE=Country
TTITLE0=It's High Time
TTITLE1=There's Nobody Like You
TTITLE2=Without You
TTITLE3=Cajun Rage
TTITLE4=You And I (With Chet Atkins)
TTITLE5=Starting Today-Starting Over
TTITLE6=Something's Missin'
TTITLE7=You're Not Easy To Forget
TTITLE8=Don't Be Kind
EXTD=
EXTT0=
EXTT1=
EXTT2=
EXTT3=
EXTT4=
EXTT5=
EXTT6=
EXTT7=
EXTT8=
PLAYORDER=
